<?xml version="1.0" standalone="no"?>
<!DOCTYPE svg PUBLIC "-//W3C//DTD SVG 20010904//EN"
 "http://www.w3.org/TR/2001/REC-SVG-20010904/DTD/svg10.dtd">
<svg version="1.0" xmlns="http://www.w3.org/2000/svg"
 width="260.000000pt" height="260.000000pt" viewBox="0 0 260.000000 260.000000"
 preserveAspectRatio="xMidYMid meet">
<metadata>
Created by potrace 1.11, written by Peter Selinger 2001-2013
</metadata>
<g transform="translate(0.000000,260.000000) scale(0.100000,-0.100000)"
fill="#000000" stroke="none">
<path d="M1245 2512 c-51 -34 -244 -171 -269 -192 -352 -282 -585 -547 -720
-816 -43 -87 -93 -221 -102 -274 -3 -14 -7 -32 -9 -40 -2 -8 -7 -42 -12 -75
-46 -370 143 -701 510 -895 84 -44 287 -125 287 -115 0 2 18 -2 40 -10 22 -8
44 -14 48 -14 6 0 49 -6 132 -18 146 -21 426 -20 570 2 14 2 43 6 65 10 42 6
73 11 115 20 14 3 35 7 47 10 153 28 553 172 553 197 0 5 -8 7 -17 4 -122 -37
-167 -50 -273 -75 -277 -66 -610 -84 -760 -41 -16 5 -30 7 -30 5 0 -2 -31 7
-70 20 -188 64 -309 173 -371 334 -27 72 -31 96 -34 204 -6 186 58 370 193
562 98 138 321 349 482 455 69 46 100 72 100 84 0 11 -303 505 -361 588 -10
15 -19 30 -19 33 0 9 -43 65 -49 64 -3 0 -24 -12 -46 -27z"/>
<path d="M1737 1730 c-21 -12 -69 -44 -105 -73 -242 -188 -411 -389 -491 -582
-115 -276 -92 -481 73 -648 93 -94 199 -147 362 -181 67 -14 335 -16 425 -3
126 19 434 108 396 115 -9 2 -48 -4 -86 -12 -38 -9 -84 -18 -103 -21 -18 -3
-55 -9 -83 -13 -54 -9 -195 -8 -235 2 -111 25 -163 50 -225 107 -49 45 -76 92
-99 170 -39 129 -6 261 107 429 41 62 187 205 275 269 46 35 72 61 72 73 0 11
-41 85 -91 166 -130 209 -138 222 -147 222 -4 0 -24 -9 -45 -20z"/>
</g>
</svg>
